<svg id="圖層_1" data-name="圖層 1" xmlns="http://www.w3.org/2000/svg" xmlns:xlink="http://www.w3.org/1999/xlink" viewBox="0 0 43.74 43.74"><defs><style>.cls-1{fill:#a2875a;}.cls-2{clip-path:url(#clip-path);}.cls-3{fill:#fff;}</style><clipPath id="clip-path" transform="translate(-937.86 -518.1)"><circle class="cls-1" cx="959.74" cy="540.29" r="21.53"/></clipPath></defs><circle class="cls-1" cx="21.88" cy="22.19" r="21.53"/><g class="cls-2"><path class="cls-1" d="M979.18,518.1H940.27a2.41,2.41,0,0,0-2.41,2.41v38.91a2.41,2.41,0,0,0,2.41,2.41h38.91a2.41,2.41,0,0,0,2.42-2.41h0V520.51A2.41,2.41,0,0,0,979.18,518.1Z" transform="translate(-937.86 -518.1)"/><path class="cls-3" d="M962.59,561.83V544.92h5.7l.86-6.62h-6.56v-4.22c0-1.91.53-3.21,3.27-3.21h3.48V525a47,47,0,0,0-5.09-.26c-5,0-8.49,3.08-8.49,8.73v4.87h-5.68v6.62h5.68v16.91Z" transform="translate(-937.86 -518.1)"/></g></svg>