<svg id="圖層_1" data-name="圖層 1" xmlns="http://www.w3.org/2000/svg" viewBox="0 0 42.13 41.03"><defs><style>.cls-1{fill:#9b805a;}.cls-2{fill:#fff;}</style></defs><path class="cls-1" d="M703.84,379.16h0v-.11h0l-.05-.41c0-.08,0-.17,0-.28v-.08h0a16.07,16.07,0,0,0-4.12-8.07,21.06,21.06,0,0,0-8.17-5.38,25,25,0,0,0-8.58-1.5,24,24,0,0,0-11.26,2.73c-6.47,3.44-10.29,9.76-9.73,16.11a16.63,16.63,0,0,0,3.72,9,20.13,20.13,0,0,0,7.89,5.77,29.27,29.27,0,0,0,5.87,1.58l.23.05c.56.11.71.26.75.32a.69.69,0,0,1,0,.45c0,.11-.05.23-.08.34a6.7,6.7,0,0,0-.26,2.81,2,2,0,0,0,2,1.83h0a7.35,7.35,0,0,0,3.3-1.28l.11-.06c2-1.21,4-2.57,5.44-3.62,3.18-2.29,6.79-4.89,9.49-8.26A16.29,16.29,0,0,0,703.84,379.16Z" transform="translate(-661.81 -363.32)"/><path class="cls-2" d="M675.81,387.07h-3.88a1.05,1.05,0,0,1-1.06-1.06v-8.14a1.06,1.06,0,0,1,2.12,0V385h2.82a1.06,1.06,0,1,1,0,2.12Z" transform="translate(-661.81 -363.32)"/><path class="cls-2" d="M679.85,386a1.06,1.06,0,0,1-2.12,0v-8.14a1.06,1.06,0,0,1,2.12,0Z" transform="translate(-661.81 -363.32)"/><path class="cls-2" d="M689.45,386a1.06,1.06,0,0,1-.74,1,1,1,0,0,1-.33.05,1,1,0,0,1-.85-.44l-3.83-5.26V386a1.06,1.06,0,0,1-2.12,0v-7.91a1.06,1.06,0,0,1,1.92-.62l3.82,5.26v-4.87a1.07,1.07,0,0,1,2.13,0Z" transform="translate(-661.81 -363.32)"/><path class="cls-2" d="M697.18,386.88h-5.25a1.06,1.06,0,0,1-1.06-1.07v-8.14a1.06,1.06,0,0,1,1.06-1.06H697a1.06,1.06,0,1,1,0,2.12h-4v1.95h3.27a1.07,1.07,0,0,1,0,2.13H693v1.94h4.19a1.07,1.07,0,0,1,0,2.13Z" transform="translate(-661.81 -363.32)"/></svg>