<svg id="圖層_1" data-name="圖層 1" xmlns="http://www.w3.org/2000/svg" viewBox="0 0 30 30"><defs><style>.cls-1{fill:#dbcfb7;}.cls-2{fill:#00183c;}</style></defs><circle class="cls-1" cx="15" cy="15" r="15"/><path class="cls-2" d="M689.9,383.26,684.61,378a.81.81,0,0,0-1.13,0l-.48.48a.76.76,0,0,0-.24.57.78.78,0,0,0,.24.57l3.08,3.1h-9.81a.78.78,0,0,0-.79.79v.68a.81.81,0,0,0,.79.82h9.85L683,388.09a.79.79,0,0,0,0,1.13l.48.48a.79.79,0,0,0,.56.23.76.76,0,0,0,.57-.24l5.29-5.29a.8.8,0,0,0,.24-.57A.84.84,0,0,0,689.9,383.26Z" transform="translate(-667.81 -368.83)"/></svg>