<svg id="圖層_1" data-name="圖層 1" xmlns="http://www.w3.org/2000/svg" xmlns:xlink="http://www.w3.org/1999/xlink" viewBox="0 0 1521.84 727.97"><defs><style>.cls-1,.cls-10{fill:none;}.cls-2{clip-path:url(#clip-path);}.cls-3{font-size:48px;font-family:MicrosoftJhengHeiBold, Microsoft JhengHei;letter-spacing:-0.01em;}.cls-4{font-size:24px;font-family:MicrosoftJhengHeiRegular, Microsoft JhengHei;letter-spacing:0.2em;}.cls-5{font-size:18px;letter-spacing:0.2em;}.cls-6{fill:#c6c6c6;}.cls-7{fill:#4267a9;}.cls-8{fill:#fff;}.cls-9{fill:#2ddc00;}.cls-10{stroke:#00183c;stroke-miterlimit:10;}.cls-11{fill:#efe37d;}.cls-12{fill:#6fdaff;}.cls-13{fill:#b86752;}.cls-14{fill:#a6593c;}.cls-15{fill:#db8566;}.cls-16{fill:#161616;}.cls-17{fill:#ffe580;}.cls-18{fill:#ffeeb6;}.cls-19{fill:#c89880;}.cls-20{fill:#ffb807;}.cls-21{fill:#eb4336;}.cls-22{fill:#f1f1f1;}.cls-23{fill:#455a64;}.cls-24{fill:#7f858b;}.cls-25{fill:#545c60;}.cls-26{fill:#02a0eb;}.cls-27{fill:#0377b3;}.cls-28{fill:#eb4335;}.cls-29{fill:#bf1e1e;}.cls-30{fill:#ececec;}.cls-31{fill:#8a7dd9;}.cls-32{fill:#7570cd;}.cls-33{fill:#f4ceb4;}.cls-34{fill:#80d2ff;}.cls-35{fill:#6fbeff;}.cls-36{fill:#f1bca1;}</style><clipPath id="clip-path" transform="translate(-219.61 -87.45)"><rect class="cls-1" width="1920" height="970"/></clipPath></defs><g class="cls-2"><text class="cls-3" transform="translate(642.35 42.73)">購物須知</text><text class="cls-4" transform="translate(16.67 339.68)">STEP1:<tspan x="-16.67" y="28.8">FB或LINE</tspan><tspan x="-7.11" y="57.6">@</tspan><tspan class="cls-5" x="22.44" y="57.6">私訊小編</tspan></text><text class="cls-4" transform="translate(284.37 339.68)">STEP2:<tspan x="-49.33" y="28.8">確認欲訂購商品</tspan></text><text class="cls-4" transform="translate(552.07 339.68)">STEP3:<tspan x="-34.93" y="28.8">確認收貨方式</tspan><tspan x="-9.79" y="57.6">(</tspan><tspan class="cls-5" x="2.71" y="57.6">超商/郵局</tspan><tspan x="100.22" y="57.6">)</tspan></text><text class="cls-4" transform="translate(819.77 344.68)">STEP4:<tspan x="-78.13" y="28.8">提供匯款帳號後五碼</tspan><tspan x="-36.63" y="57.6">(</tspan><tspan class="cls-5" x="-24.13" y="57.6">收到匯款後出貨</tspan><tspan x="127.07" y="57.6">)</tspan></text><text class="cls-4" transform="translate(1087.47 344.68)">STEP5:<tspan x="-6.13" y="28.8">物流配送</tspan></text><text class="cls-4" transform="translate(1355.17 345.18)">STEP6:<tspan x="-63.73" y="28.8">聯絡通知商品送達</tspan><tspan x="46.07" y="57.6"> </tspan></text><polygon class="cls-6" points="216.44 210.34 187.54 189.4 187.54 231.29 216.44 210.34"/><polygon class="cls-6" points="484.14 210.34 455.24 189.4 455.24 231.29 484.14 210.34"/><polygon class="cls-6" points="751.84 210.34 722.94 189.4 722.94 231.29 751.84 210.34"/><polygon class="cls-6" points="1019.54 210.34 990.64 189.4 990.64 231.29 1019.54 210.34"/><polygon class="cls-6" points="1287.24 210.34 1258.34 189.4 1258.34 231.29 1287.24 210.34"/><path class="cls-7" d="M274,236.92H229.53a2.77,2.77,0,0,0-2.76,2.76v44.49a2.76,2.76,0,0,0,2.76,2.75H274a2.75,2.75,0,0,0,2.76-2.76h0V239.68A2.76,2.76,0,0,0,274,236.92Z" transform="translate(-219.61 -87.45)"/><path class="cls-8" d="M255.07,286.92V267.59h6.52l1-7.57h-7.5V255.2c0-2.19.61-3.68,3.74-3.68h4v-6.75a53.61,53.61,0,0,0-5.82-.3c-5.76,0-9.7,3.52-9.7,10V260h-6.5v7.57h6.5v19.33Z" transform="translate(-219.61 -87.45)"/><path class="cls-9" d="M346.26,329.4h0v-.13h0l-.06-.48,0-.33v-.1h0a18.94,18.94,0,0,0-4.88-9.57,24.85,24.85,0,0,0-9.7-6.39,29.55,29.55,0,0,0-10.18-1.78A28.63,28.63,0,0,0,308,313.84c-7.68,4.09-12.21,11.59-11.54,19.12a19.68,19.68,0,0,0,4.41,10.73,23.7,23.7,0,0,0,9.36,6.85,35.3,35.3,0,0,0,7,1.88l.28.05c.66.14.84.31.89.39a.8.8,0,0,1,0,.53l-.09.4a7.87,7.87,0,0,0-.32,3.34,2.32,2.32,0,0,0,2.36,2.16h0a8.63,8.63,0,0,0,3.92-1.51l.14-.08c2.43-1.43,4.72-3,6.45-4.28,3.78-2.73,8.06-5.82,11.27-9.81A19.38,19.38,0,0,0,346.26,329.4ZM312,337h-4.31a1.18,1.18,0,0,1-1.18-1.18v-9a1.18,1.18,0,0,1,2.36,0v7.87H312a1.18,1.18,0,1,1,0,2.36Zm4.5-1.21a1.18,1.18,0,0,1-2.36,0v-9.05a1.18,1.18,0,0,1,2.36,0Zm10.67,0a1.17,1.17,0,0,1-.82,1.12,1.13,1.13,0,0,1-.36.06,1.19,1.19,0,0,1-1-.48l-4.25-5.86v5.16a1.18,1.18,0,0,1-2.36,0V327a1.18,1.18,0,0,1,2.14-.7l4.25,5.86v-5.42a1.18,1.18,0,1,1,2.36,0Zm8.6,1h-5.84a1.18,1.18,0,0,1-1.18-1.18v-9.06a1.18,1.18,0,0,1,1.18-1.18h5.66a1.18,1.18,0,0,1,0,2.36h-4.48v2.17h3.63a1.18,1.18,0,0,1,0,2.36h-3.63v2.17h4.66a1.18,1.18,0,0,1,0,2.36Z" transform="translate(-219.61 -87.45)"/><line class="cls-10" x1="132.39" y1="154.55" x2="17.89" y2="269.05"/><path class="cls-11" d="M880.38,296.22v40.91a4.67,4.67,0,0,1-4.67,4.67H848a4.67,4.67,0,0,1-4.67-4.67h0V296.22a4.67,4.67,0,0,1,4.67-4.67h6.31a3.47,3.47,0,0,0,3.47,3.47h8.18a3.47,3.47,0,0,0,3.47-3.47h6.31A4.67,4.67,0,0,1,880.38,296.22Zm-24.1,25.9v-6.68H849.6v6.68Z" transform="translate(-219.61 -87.45)"/><path class="cls-12" d="M854.28,291.55v-.22a3.47,3.47,0,0,1,3.47-3.47h8.18a3.47,3.47,0,0,1,3.47,3.47h0v.23a3.47,3.47,0,0,1-3.47,3.47h-8.17a3.47,3.47,0,0,1-3.48-3.47h0Z" transform="translate(-219.61 -87.45)"/><path class="cls-13" d="M859.19,273.3v14.56h-1.43a3.47,3.47,0,0,0-3.48,3.47h0v.22H848a4.66,4.66,0,0,0-4.67,4.67h0v30.12L821.2,339.1V295.23l38-21.93Z" transform="translate(-219.61 -87.45)"/><polygon class="cls-14" points="601.59 207.78 582.23 196.6 620.21 174.67 620.21 174.67 639.58 185.85 601.59 207.78"/><rect class="cls-12" x="629.99" y="227.99" width="6.67" height="6.68"/><polygon class="cls-14" points="620.21 174.67 582.23 196.6 563.61 185.85 601.59 163.92 620.21 174.67"/><polygon class="cls-15" points="601.59 207.78 601.59 251.65 563.61 229.72 563.61 185.85 563.61 185.85 582.23 196.6 601.59 207.78"/><path d="M875.71,290.11h-5a5,5,0,0,0-4.74-3.65h-5.38V273.3a1.42,1.42,0,0,0-.69-1.23l-19.34-11.18-.67,1.23h0l.67-1.23-18.64-10.75a1.46,1.46,0,0,0-1.43,0l-38,21.92a1.41,1.41,0,0,0-.74,1.24v43.86a1.41,1.41,0,0,0,.71,1.23l38,21.93a1.38,1.38,0,0,0,.71.19,1.42,1.42,0,0,0,.73-.19l20-11.53v8.34a6,6,0,0,0,6,6h27.8a6,6,0,0,0,6.09-6V296.22A6.11,6.11,0,0,0,875.71,290.11ZM868,291.33v.23a2,2,0,0,1-2.1,2h-8.17a2,2,0,0,1-2.07-2v-.26a2,2,0,0,1,2.06-2h8.18A2.07,2.07,0,0,1,868,291.33Zm-11.68-18L821.2,293.59l-16.53-9.54,35.15-20.3ZM821.2,253,837,262.12l-35.15,20.29-15.79-9.11Zm-36.57,22.74,35.23,20.3v40.59l-35.23-20.29Zm38.06,60.89V296.05l35-20.3v10.71h0a5,5,0,0,0-4.75,3.65h-5a6.08,6.08,0,0,0-6.05,6.11v29.3Zm56.28.49a3.2,3.2,0,0,1-3.21,3.18H848a3.16,3.16,0,0,1-3.21-3.11v-41a3.25,3.25,0,0,1,3.21-3.28h5.1a4.84,4.84,0,0,0,4.69,3.44h8.17a4.84,4.84,0,0,0,4.68-3.44h5.1a3.28,3.28,0,0,1,3.26,3.28Z" transform="translate(-219.61 -87.45)"/><path class="cls-16" d="M849.6,310.55h1.49a1.42,1.42,0,0,0,0-2.83H851v-3.85h3.91a1.36,1.36,0,0,0,1.35,1,1.42,1.42,0,0,0,1.42-1.41v-1a1.44,1.44,0,0,0-1.43-1.42H849.6a1.4,1.4,0,0,0-1.4,1.42h0v6.68a1.39,1.39,0,0,0,1.4,1.41Z" transform="translate(-219.61 -87.45)"/><path class="cls-16" d="M857.71,315.41a1.42,1.42,0,0,0-1.42-1.42h-6.68a1.42,1.42,0,0,0-1.41,1.42v6.68a1.42,1.42,0,0,0,1.41,1.42h6.68a1.42,1.42,0,0,0,1.42-1.42ZM851,316.83h3.85v3.84H851Z" transform="translate(-219.61 -87.45)"/><path class="cls-16" d="M851.09,333.63H851v-3.85h3.83a1.43,1.43,0,0,0,2.85,0v-1.37a1.48,1.48,0,0,0-1.43-1.47H849.6a1.45,1.45,0,0,0-1.4,1.47v6.68a1.36,1.36,0,0,0,1.36,1.36h1.53a1.42,1.42,0,0,0,0-2.83Z" transform="translate(-219.61 -87.45)"/><path class="cls-16" d="M859.54,302.78l-4.15,4.15-1.26-1.26a1.42,1.42,0,0,0-2,2l2.27,2.26a1.4,1.4,0,0,0,2,0h0l5.16-5.15a1.42,1.42,0,1,0-2-2Z" transform="translate(-219.61 -87.45)"/><path class="cls-16" d="M859.54,328.94l-4.15,4.15-1.26-1.26a1.42,1.42,0,0,0-2,2l2.27,2.27a1.42,1.42,0,0,0,2,0h0l5.16-5.16a1.42,1.42,0,1,0-2-2Z" transform="translate(-219.61 -87.45)"/><path class="cls-16" d="M874.08,304.48h-8.9a1.42,1.42,0,1,0,0,2.83h8.9a1.42,1.42,0,1,0,0-2.83Z" transform="translate(-219.61 -87.45)"/><path class="cls-16" d="M874.08,317.44h-8.9a1.42,1.42,0,1,0,0,2.83h8.9a1.42,1.42,0,1,0,0-2.83Z" transform="translate(-219.61 -87.45)"/><path class="cls-16" d="M874.08,330.39h-8.9a1.42,1.42,0,1,0,0,2.84h8.9a1.42,1.42,0,0,0,0-2.84Z" transform="translate(-219.61 -87.45)"/><path class="cls-17" d="M560,304.29v34.44h-46.3V268.59H560v35.7Z" transform="translate(-219.61 -87.45)"/><path class="cls-8" d="M513.73,283.24H560v40.85h-46.3Z" transform="translate(-219.61 -87.45)"/><path class="cls-17" d="M519.29,247.62h35.18V256H519.29Z" transform="translate(-219.61 -87.45)"/><path class="cls-18" d="M513.73,268.59,519.29,256h35.18L560,268.59Z" transform="translate(-219.61 -87.45)"/><ellipse class="cls-19" cx="536.87" cy="303.66" rx="12.27" ry="9.81" transform="translate(-277.09 381.11) rotate(-45)"/><path d="M561.72,267.85h0l-5.4-12.29v-7.94a1.85,1.85,0,0,0-1.85-1.85H519.29a1.85,1.85,0,0,0-1.86,1.85v7.94L512,267.85h0a1.82,1.82,0,0,0-.16.74v70.14a1.85,1.85,0,0,0,1.85,1.85H560a1.85,1.85,0,0,0,1.85-1.85V304.29a1.85,1.85,0,1,0-3.7,0v17.94h-42.6V285.09h42.6v2.53a1.85,1.85,0,1,0,3.7,0v-19a1.82,1.82,0,0,0-.16-.74ZM520.5,257.8h32.76l3.93,8.94H516.57Zm.64-8.33h31.48v4.63H521.14Zm37,76.47v10.94h-42.6V325.94Zm-42.6-44.56V270.44h42.6v10.94Z" transform="translate(-219.61 -87.45)"/><circle cx="340.42" cy="208.5" r="1.85"/><path d="M528.63,295.41c-5.51,5.51-6.29,13.69-1.74,18.24a10.5,10.5,0,0,0,7.54,3,15.41,15.41,0,0,0,10.7-4.7c5.51-5.5,6.28-13.68,1.73-18.23s-12.72-3.77-18.23,1.73Zm2.62,2.62a11.77,11.77,0,0,1,8.07-3.64,7.74,7.74,0,0,1,2.22.32c-3.85,2.16-4.91,5-5.85,7.51-1,2.78-2,5.41-7,7.84C526.59,306.82,527.58,301.7,531.25,298Zm11.26,11.26c-3.16,3.16-7.38,4.33-10.57,3.24,4.94-2.91,6.18-6.25,7.22-9s1.77-4.73,5.81-6.34C547.19,300.4,546.22,305.58,542.51,309.29Z" transform="translate(-219.61 -87.45)"/><path class="cls-17" d="M601,310.29v34.44h-46.3V274.59H601v35.7Z" transform="translate(-219.61 -87.45)"/><path class="cls-8" d="M554.73,289.24H601v40.85h-46.3Z" transform="translate(-219.61 -87.45)"/><path class="cls-17" d="M560.29,253.62h35.18V262H560.29Z" transform="translate(-219.61 -87.45)"/><path class="cls-18" d="M554.73,274.59,560.29,262h35.18L601,274.59Z" transform="translate(-219.61 -87.45)"/><ellipse class="cls-19" cx="577.87" cy="309.66" rx="12.27" ry="9.81" transform="translate(-269.32 411.86) rotate(-45)"/><path d="M602.72,273.85h0l-5.4-12.29v-7.94a1.85,1.85,0,0,0-1.85-1.85H560.29a1.85,1.85,0,0,0-1.86,1.85v7.94L553,273.85h0a1.82,1.82,0,0,0-.16.74v70.14a1.85,1.85,0,0,0,1.85,1.85H601a1.85,1.85,0,0,0,1.85-1.85V310.29a1.85,1.85,0,1,0-3.7,0v17.94h-42.6V291.09h42.6v2.53a1.85,1.85,0,1,0,3.7,0v-19a1.82,1.82,0,0,0-.16-.74ZM561.5,263.8h32.76l3.93,8.94H557.57Zm.64-8.33h31.48v4.63H562.14Zm37,76.47v10.94h-42.6V331.94Zm-42.6-44.56V276.44h42.6v10.94Z" transform="translate(-219.61 -87.45)"/><circle cx="381.42" cy="214.5" r="1.85"/><path d="M569.63,301.41c-5.51,5.51-6.29,13.69-1.74,18.24a10.5,10.5,0,0,0,7.54,3,15.41,15.41,0,0,0,10.7-4.7c5.51-5.5,6.28-13.68,1.73-18.23s-12.72-3.77-18.23,1.73Zm2.62,2.62a11.77,11.77,0,0,1,8.07-3.64,7.74,7.74,0,0,1,2.22.32c-3.85,2.16-4.91,5-5.85,7.51-1,2.78-2,5.41-7,7.84C567.59,312.82,568.58,307.7,572.25,304Zm11.26,11.26c-3.16,3.16-7.38,4.33-10.57,3.24,4.94-2.91,6.18-6.25,7.22-9s1.77-4.73,5.81-6.34C588.19,306.4,587.22,311.58,583.51,315.29Z" transform="translate(-219.61 -87.45)"/><path class="cls-17" d="M993.18,706v68.89h-92.6V634.6h92.6V706Z" transform="translate(-219.61 -87.45)"/><path class="cls-8" d="M900.58,663.89h92.6v81.7h-92.6Z" transform="translate(-219.61 -87.45)"/><path class="cls-17" d="M911.69,592.66h70.37v16.66H911.69Z" transform="translate(-219.61 -87.45)"/><path class="cls-18" d="M900.58,634.6l11.11-25.28h70.37l11.12,25.28Z" transform="translate(-219.61 -87.45)"/><ellipse class="cls-19" cx="946.86" cy="704.74" rx="24.54" ry="19.63" transform="translate(-440.61 788.49) rotate(-45)"/><path d="M996.56,633.11h0l-10.8-24.56V592.66a3.71,3.71,0,0,0-3.71-3.71H911.69a3.71,3.71,0,0,0-3.7,3.71v15.89l-10.8,24.56h0a3.71,3.71,0,0,0-.31,1.49V774.88a3.7,3.7,0,0,0,3.7,3.7h92.6a3.7,3.7,0,0,0,3.7-3.7V706a3.71,3.71,0,0,0-7.41,0v35.9H904.29v-74.3h85.18v5.07a3.71,3.71,0,0,0,7.41,0V634.6a3.56,3.56,0,0,0-.32-1.49ZM914.11,613h65.54l7.85,17.87H906.26Zm1.29-16.67h63v9.26h-63Zm74.07,152.93v21.89H904.29V749.29Zm-85.18-89.1V638.3h85.18v21.89Z" transform="translate(-219.61 -87.45)"/><circle cx="773.57" cy="601.87" r="3.7"/><path d="M930.38,688.24c-11,11-12.57,27.37-3.47,36.47A21,21,0,0,0,942,730.63a30.81,30.81,0,0,0,21.41-9.39c11-11,12.57-27.37,3.47-36.47s-25.46-7.54-36.47,3.47Zm5.24,5.24c4.77-4.77,10.75-7.28,16.14-7.28a15.54,15.54,0,0,1,4.45.63c-7.72,4.33-9.82,9.95-11.72,15-2.07,5.55-4,10.83-13.92,15.68C926.3,711.05,928.27,700.82,935.62,693.48ZM958.14,716c-6.31,6.32-14.77,8.66-21.13,6.48,9.86-5.82,12.36-12.5,14.42-18s3.55-9.48,11.63-12.7C967.5,698.23,965.56,708.59,958.14,716Z" transform="translate(-219.61 -87.45)"/><path class="cls-17" d="M1026.1,739.14V790.8H956.66V685.6h69.44v53.54Z" transform="translate(-219.61 -87.45)"/><path class="cls-8" d="M956.66,707.56h69.44v61.28H956.66Z" transform="translate(-219.61 -87.45)"/><path class="cls-17" d="M965,654.14h52.78v12.5H965Z" transform="translate(-219.61 -87.45)"/><path class="cls-18" d="M956.66,685.6l8.33-19h52.78l8.33,19Z" transform="translate(-219.61 -87.45)"/><ellipse class="cls-19" cx="991.36" cy="738.2" rx="18.4" ry="14.72" transform="translate(-451.23 829.76) rotate(-45)"/><path d="M1028.64,684.48h0l-8.09-18.43V654.14a2.78,2.78,0,0,0-2.78-2.78H965a2.78,2.78,0,0,0-2.78,2.78v11.91l-8.1,18.43h0a2.77,2.77,0,0,0-.23,1.12V790.8a2.77,2.77,0,0,0,2.78,2.78h69.44a2.77,2.77,0,0,0,2.78-2.78V739.14a2.78,2.78,0,0,0-5.56,0v26.92H959.43V710.34h63.89v3.8a2.78,2.78,0,0,0,5.56,0V685.6a2.78,2.78,0,0,0-.24-1.12ZM966.8,669.42H1016l5.9,13.4H960.91Zm1-12.5H1015v6.94H967.77Zm55.55,114.7V788H959.43V771.62Zm-63.89-66.83V688.37h63.89v16.42Z" transform="translate(-219.61 -87.45)"/><circle cx="806.49" cy="639.19" r="2.78"/><path d="M979,725.83c-8.26,8.25-9.42,20.52-2.6,27.35a15.71,15.71,0,0,0,11.3,4.44,23.1,23.1,0,0,0,16-7c8.26-8.26,9.43-20.53,2.61-27.36s-19.1-5.65-27.36,2.61Zm3.93,3.92A17.66,17.66,0,0,1,995,724.3a11.41,11.41,0,0,1,3.33.47c-5.78,3.24-7.36,7.46-8.78,11.27-1.56,4.17-3,8.12-10.44,11.76C975.94,742.93,977.42,735.26,982.93,729.75Zm16.9,16.9c-4.74,4.73-11.08,6.49-15.86,4.85,7.4-4.36,9.28-9.37,10.82-13.52s2.66-7.11,8.72-9.52C1006.84,733.32,1005.39,741.09,999.83,746.65Z" transform="translate(-219.61 -87.45)"/><path d="M1058.39,295.24h27.2v5.44h-27.2Z" transform="translate(-219.61 -87.45)"/><path d="M1118.22,300.68h5.44v5.43h-5.44Z" transform="translate(-219.61 -87.45)"/><path d="M1107.34,300.68h5.44v5.43h-5.44Z" transform="translate(-219.61 -87.45)"/><path d="M1096.47,300.68h5.44v5.43h-5.44Z" transform="translate(-219.61 -87.45)"/><path d="M1126.38,262.6h-70.71a8.17,8.17,0,0,0-8.16,8.16v38.07a8.17,8.17,0,0,0,8.16,8.16h70.71a8.17,8.17,0,0,0,8.16-8.16V270.76a8.17,8.17,0,0,0-8.16-8.16ZM1055.67,268h70.71a2.72,2.72,0,0,1,2.72,2.72v2.72H1053v-2.72A2.72,2.72,0,0,1,1055.67,268Zm73.43,10.88v5.44H1053v-5.44Zm-2.72,32.63h-70.71a2.72,2.72,0,0,1-2.72-2.72v-19h76.15v19A2.72,2.72,0,0,1,1126.38,311.55Z" transform="translate(-219.61 -87.45)"/><path d="M1071.09,324.59l-3.52,3.51-3.52-3.51-3.84,3.84,3.51,3.52-3.51,3.52,3.84,3.84,3.52-3.51,3.52,3.51,3.84-3.84-3.51-3.52,3.51-3.52Z" transform="translate(-219.61 -87.45)"/><path d="M1051.88,324.59l-3.52,3.51-3.51-3.51-3.85,3.84,3.52,3.52-3.52,3.52,3.85,3.84,3.51-3.51,3.52,3.51,3.84-3.84-3.51-3.52,3.51-3.52Z" transform="translate(-219.61 -87.45)"/><path d="M1092.84,324.59l-3.51,3.51-3.52-3.51-3.85,3.84,3.52,3.52-3.52,3.52,3.85,3.84,3.52-3.51,3.51,3.51,3.85-3.84-3.52-3.52,3.52-3.52Z" transform="translate(-219.61 -87.45)"/><path d="M1114.6,324.59l-3.52,3.51-3.51-3.51-3.85,3.84,3.52,3.52-3.52,3.52,3.85,3.84,3.51-3.51,3.52,3.51,3.85-3.84-3.52-3.52,3.52-3.52Z" transform="translate(-219.61 -87.45)"/><path d="M1124.68,329.23H1141v5.44h-16.32Z" transform="translate(-219.61 -87.45)"/><path class="cls-20" d="M1324.8,275.81a4.22,4.22,0,0,0-4.22-4.22h-25.31a4.22,4.22,0,0,0,0,8.44h25.31A4.22,4.22,0,0,0,1324.8,275.81Z" transform="translate(-219.61 -87.45)"/><path class="cls-20" d="M1320.58,288.46h-16.87a4.22,4.22,0,0,0,0,8.44h16.87a4.22,4.22,0,1,0,0-8.44Z" transform="translate(-219.61 -87.45)"/><path class="cls-20" d="M1320.58,305.34h-8.44a4.22,4.22,0,0,0,0,8.44h8.44a4.22,4.22,0,1,0,0-8.44Z" transform="translate(-219.61 -87.45)"/><path class="cls-21" d="M1425.45,303.17l-12.66-21.09a4.17,4.17,0,0,0-3.61-2.05h-29.54a4.21,4.21,0,0,0-4.21,4.21v42.19a4.21,4.21,0,0,0,4.21,4.22h42.19a4.22,4.22,0,0,0,4.22-4.22V305.34A4.13,4.13,0,0,0,1425.45,303.17Z" transform="translate(-219.61 -87.45)"/><polygon class="cls-22" points="1172.69 201.01 1187.18 201.01 1197.3 217.89 1172.69 217.89 1172.69 201.01"/><path class="cls-20" d="M1379.64,263.15h-59.06a4.22,4.22,0,0,0-4.22,4.22v59.06a4.22,4.22,0,0,0,4.22,4.22h63.28V267.37A4.22,4.22,0,0,0,1379.64,263.15Z" transform="translate(-219.61 -87.45)"/><circle class="cls-22" cx="1185.35" cy="238.98" r="8.44"/><path class="cls-23" d="M1405,339.09a12.66,12.66,0,1,1,12.65-12.66A12.68,12.68,0,0,1,1405,339.09Zm0-16.88a4.22,4.22,0,1,0,4.22,4.22A4.23,4.23,0,0,0,1405,322.21Z" transform="translate(-219.61 -87.45)"/><path class="cls-21" d="M1383.86,330.65h-63.28a4.22,4.22,0,0,1-4.22-4.22V313.78h67.5Z" transform="translate(-219.61 -87.45)"/><circle class="cls-22" cx="1126.28" cy="238.98" r="8.44"/><path class="cls-23" d="M1345.89,339.09a12.66,12.66,0,1,1,12.66-12.66A12.67,12.67,0,0,1,1345.89,339.09Zm0-16.88a4.22,4.22,0,1,0,4.22,4.22A4.22,4.22,0,0,0,1345.89,322.21Z" transform="translate(-219.61 -87.45)"/><g id="Icons"><path class="cls-24" d="M1662.39,343.92v10.42a6.25,6.25,0,0,1-6.25,6.25H1597.8a6.25,6.25,0,0,1-6.25-6.25V343.92a6.25,6.25,0,0,0,6.25,6.25h58.34A6.25,6.25,0,0,0,1662.39,343.92Z" transform="translate(-219.61 -87.45)"/><path class="cls-25" d="M1656.14,350.17v4.17a6.25,6.25,0,0,1-6.25,6.25h6.25a6.25,6.25,0,0,0,6.25-6.25V343.92A6.25,6.25,0,0,1,1656.14,350.17Z" transform="translate(-219.61 -87.45)"/><rect class="cls-26" x="1371.94" y="152.3" width="70.83" height="110.42" rx="6.25"/><path class="cls-27" d="M1656.14,239.75h-6.25a6.25,6.25,0,0,1,6.25,6.25v97.92a6.25,6.25,0,0,1-6.25,6.25h6.25a6.25,6.25,0,0,0,6.25-6.25V246A6.25,6.25,0,0,0,1656.14,239.75Z" transform="translate(-219.61 -87.45)"/><path class="cls-24" d="M1647.8,239.75l-6,6.36a6.25,6.25,0,0,1-4.56,2h-20.62a6.25,6.25,0,0,1-4.56-2l-6-6.36Z" transform="translate(-219.61 -87.45)"/><circle class="cls-28" cx="1446.94" cy="183.55" r="20.83"/><path class="cls-29" d="M1666.55,250.17a21.77,21.77,0,0,0-3.12.26,20.81,20.81,0,0,1,0,41.15,20.82,20.82,0,0,0,6.3-41.17A21.08,21.08,0,0,0,1666.55,250.17Z" transform="translate(-219.61 -87.45)"/></g><g id="Icons_copy" data-name="Icons copy"><path class="cls-30" d="M1599.89,258.5a2.08,2.08,0,0,1-1.48-3.55l2.09-2.09a2.08,2.08,0,1,1,3,2.9s0,0,0,.05l-2.08,2.08A2.08,2.08,0,0,1,1599.89,258.5Z" transform="translate(-219.61 -87.45)"/><path class="cls-30" d="M1599.89,268.92a2.09,2.09,0,0,1-1.48-3.56l12.5-12.5a2.09,2.09,0,0,1,3,2.9l-.05.05-12.5,12.5A2.08,2.08,0,0,1,1599.89,268.92Z" transform="translate(-219.61 -87.45)"/><path d="M1656.14,237.67H1597.8a8.33,8.33,0,0,0-8.33,8.33V354.34a8.33,8.33,0,0,0,8.33,8.33h58.34a8.33,8.33,0,0,0,8.33-8.33V293.81a20.55,20.55,0,0,0,2.08.11,22.92,22.92,0,1,0,0-45.83c-.7,0-1.39,0-2.08.1V246A8.33,8.33,0,0,0,1656.14,237.67ZM1643,241.84l-2.67,2.85a4.17,4.17,0,0,1-3,1.31h-20.62a4.17,4.17,0,0,1-3-1.31l-2.67-2.85Zm17.31,112.5a4.16,4.16,0,0,1-4.16,4.16H1597.8a4.16,4.16,0,0,1-4.16-4.16V351.1a8.15,8.15,0,0,0,4.16,1.15h58.34a8.15,8.15,0,0,0,4.16-1.15Zm0-10.42a4.17,4.17,0,0,1-4.16,4.17H1597.8a4.17,4.17,0,0,1-4.16-4.17V246a4.16,4.16,0,0,1,4.16-4.16h7.43l5.35,5.7a8.38,8.38,0,0,0,6.08,2.63h20.62a8.37,8.37,0,0,0,6.08-2.63l5.35-5.7h7.43a4.16,4.16,0,0,1,4.16,4.16v3a22.89,22.89,0,0,0,0,44.06Zm6.25-91.67A18.75,18.75,0,1,1,1647.8,271,18.75,18.75,0,0,1,1666.55,252.25Z" transform="translate(-219.61 -87.45)"/><path d="M1662.39,281.42a2.09,2.09,0,1,0,0,4.17h8.33a2.09,2.09,0,0,0,0-4.17h-2.08V258.5a2.09,2.09,0,0,0-3.56-1.47l-4.17,4.17a2.08,2.08,0,0,0,2.95,2.94l.61-.61v17.89Z" transform="translate(-219.61 -87.45)"/></g><path class="cls-31" d="M932.08,772.85a44.36,44.36,0,1,1-40.86-47.61A44.36,44.36,0,0,1,932.08,772.85Z" transform="translate(-219.61 -87.45)"/><path class="cls-32" d="M891.22,725.24a44.39,44.39,0,0,0-6.92,0,44.37,44.37,0,0,1-6.65,87.41,43.59,43.59,0,0,0,6.83,1.05,44.36,44.36,0,0,0,6.74-88.47Z" transform="translate(-219.61 -87.45)"/><path class="cls-33" d="M937.86,770l-26.54,14.8a8.61,8.61,0,0,1-6.21.86,8.72,8.72,0,0,0-6.23.85l-3.55,2-16.8-29.35,6.17-19.71a21,21,0,0,0-1.7-16.51,4.94,4.94,0,0,1-.62-2.83,5,5,0,0,1,8.76-3l2.79,3.14a32.34,32.34,0,0,1,6.86,12.5l1.29,4.51,17.65-9.82a5.75,5.75,0,0,1,7.9,2.36,5.82,5.82,0,0,1-2.4,7.73.06.06,0,0,0,0,.08.06.06,0,0,0,.08,0,5.41,5.41,0,0,1,2.07-.22,5.67,5.67,0,0,1,4.59,2.93,5.7,5.7,0,0,1,.52,4.33,5.86,5.86,0,0,1-2.68,3.45.13.13,0,0,0,0,.17h0a.12.12,0,0,0,.16,0,5.46,5.46,0,0,1,1.4-.06,6,6,0,0,1,3.16,1.18,5.72,5.72,0,0,1-.67,9.58l-.21.12a.1.1,0,0,0,0,.11l0,0a.1.1,0,0,0,.12,0,5.59,5.59,0,0,1,4.81,1,5.85,5.85,0,0,1,1.58,1.83A5.75,5.75,0,0,1,937.86,770Z" transform="translate(-219.61 -87.45)"/><path class="cls-34" d="M895.17,793.81,884,800.06l-16.16,9a44.36,44.36,0,0,1-24.25-36.85l18.75-10.46,11.42-6.37a2.73,2.73,0,0,1,3.71,1.05l18.78,33.66A2.73,2.73,0,0,1,895.17,793.81Z" transform="translate(-219.61 -87.45)"/><path class="cls-35" d="M895.17,793.81,884,800.06l-21.66-38.3,11.42-6.37a2.73,2.73,0,0,1,3.71,1.05l18.78,33.66A2.73,2.73,0,0,1,895.17,793.81Z" transform="translate(-219.61 -87.45)"/><path class="cls-36" d="M930.41,738.62l-8.75,3.86a2.74,2.74,0,0,1-3.42-1l7-3.79a.06.06,0,0,0,.08,0,5.41,5.41,0,0,1,2.07-.22A5.81,5.81,0,0,1,930.41,738.62Z" transform="translate(-219.61 -87.45)"/><path class="cls-36" d="M934.46,749.52l-8.56,3.77a2.72,2.72,0,0,1-3.41-1l7-3.78.3-.12a.12.12,0,0,0,.16,0,5.46,5.46,0,0,1,1.4-.06A6,6,0,0,1,934.46,749.52Z" transform="translate(-219.61 -87.45)"/><path class="cls-36" d="M938.49,760.35,931,763.67a2.72,2.72,0,0,1-3.41-1l6-3.28a.1.1,0,0,0,.12,0A5.59,5.59,0,0,1,938.49,760.35Z" transform="translate(-219.61 -87.45)"/><path d="M941.45,761.41A7.25,7.25,0,0,0,937.2,758a7.37,7.37,0,0,0,.19-7.46,7.27,7.27,0,0,0-4.26-3.43,7.47,7.47,0,0,0,.84-1.89,7.33,7.33,0,0,0-4.91-9,7.32,7.32,0,0,0-9.77-10.28l-7.64,4.26a45.62,45.62,0,0,0-12-5.09,33.93,33.93,0,0,0-4.26-6l-2.78-3.15a6.6,6.6,0,0,0-10.71,7.59l.21.38a45.95,45.95,0,1,0,47.61,64.44,1.58,1.58,0,1,0-2.88-1.29,42.83,42.83,0,0,1-55.59,21.91l13.46-7.51h0l11.18-6.24h0a4.31,4.31,0,0,0,1.67-5.86l-.13-.22,2.17-1.22a7.1,7.1,0,0,1,5.09-.7,10.18,10.18,0,0,0,7.35-1l18-10a42.88,42.88,0,0,1-.91,4.37,1.58,1.58,0,0,0,1.12,1.94l.28,0a1.6,1.6,0,0,0,1.65-1.18,47,47,0,0,0,1.3-7.1l5.07-2.83a7.33,7.33,0,0,0,2.83-10Zm-33-29.45-5.06,2.82-.75-2.62q-.48-1.65-1.11-3.24A43,43,0,0,1,908.44,732Zm-50.7,7.12a42.78,42.78,0,0,1,25.69-12.16,19.49,19.49,0,0,1,.09,11.85l-5.11,16.3A4.29,4.29,0,0,0,873,754l-11.43,6.37h0l-16.48,9.2c0-1.12,0-2.23.13-3.35A42.77,42.77,0,0,1,857.74,739.08ZM895,791.74a1.12,1.12,0,0,1-.55.69h0l-9.82,5.48L869.19,770.7a1.58,1.58,0,0,0-2.75,1.56l15.38,27.19-14,7.83a42.93,42.93,0,0,1-22.59-34.23l16.5-9.17,1.6,2.84a1.57,1.57,0,0,0,1.26.79,1.49,1.49,0,0,0,.89-.19,1.59,1.59,0,0,0,.6-2.16l-1.59-2.81,10-5.58a1.1,1.1,0,0,1,.87-.1,1.13,1.13,0,0,1,.69.54l18.78,33.66A1.15,1.15,0,0,1,895,791.74Zm44.11-25.62a4.11,4.11,0,0,1-2,2.5l-5.81,3.24h0l-20.72,11.56a7,7,0,0,1-5.08.7,10.13,10.13,0,0,0-7.35,1l-2.18,1.21-15.38-27.57,6-19.06a22.7,22.7,0,0,0-.52-15l-.06-.15A23.33,23.33,0,0,0,884.7,722a3.44,3.44,0,0,1,5.58-4l2.79,3.14A30.84,30.84,0,0,1,899.59,733l1.3,4.54v0l0,.08.09.2a1.58,1.58,0,0,0,2.15.61l17.64-9.84a4.17,4.17,0,0,1,4.07,7.27l-1.54.86h0l-3.41,1.91h0l0,0a1.58,1.58,0,0,0,1.61,2.71l3.41-1.9a4.17,4.17,0,0,1,4.06,7.28l-5,2.76a1.58,1.58,0,0,0,.65,2.95,1.65,1.65,0,0,0,.89-.19l.77-.43,2.65-1.48a4.17,4.17,0,0,1,4.06,7.28l-2.47,1.38,0,0-2.44,1.36a1.58,1.58,0,0,0,1.54,2.76l.76-.43h0l2.65-1.48a4.16,4.16,0,0,1,6,4.78Z" transform="translate(-219.61 -87.45)"/></g></svg>